{
  "accessors": [
    {
      "bufferView": 2,
      "componentType": 5126,
      "count": 2372,
      "max": [
        0.6040560007095337,
        0.034176599234342575,
        0.9518370032310486
      ],
      "min": [
        -0.0681518018245697,
        -0.5179700255393982,
        0.061719998717308044
      ],
      "type": "VEC3"
    },
    {
      "bufferView": 2,
      "byteOffset": 28464,
      "componentType": 5126,
      "count": 2372,
      "max": [
        0.999891459941864,
        0.9993158578872681,
        0.9986034631729126
      ],
      "min": [
        -0.9927645325660706,
        -0.9982504844665527,
        -0.9978506565093994
      ],
      "type": "VEC3"
    },
    {
      "bufferView": 3,
      "componentType": 5126,
      "count": 2372,
      "max": [
        0.9999820590019226,
        0.9988038539886475,
        0.9966080188751221,
        1.0
      ],
      "min": [
        -0.9998738765716553,
        -0.9999629259109497,
        -0.9996190667152405,
        -1.0
      ],
      "type": "VEC4"
    },
    {
      "bufferView": 1,
      "componentType": 5126,
      "count": 2372,
      "max": [
        0.9994999766349792,
        0.9838150143623352
      ],
      "min": [
        0.0005000000237487257,
        0.0005000000237487257
      ],
      "type": "VEC2"
    },
    {
      "bufferView": 0,
      "componentType": 5125,
      "count": 8919,
      "type": "SCALAR"
    },
    {
      "bufferView": 2,
      "byteOffset": 56928,
      "componentType": 5126,
      "count": 2375,
      "max": [
        -0.012389499694108963,
        -0.039542198181152344,
        0.9864240288734436
      ],
      "min": [
        -0.5454599857330322,
        -0.5916889905929565,
        0.059895098209381104
      ],
      "type": "VEC3"
    },
    {
      "bufferView": 2,
      "byteOffset": 85428,
      "componentType": 5126,
      "count": 2375,
      "max": [
        0.997246265411377,
        0.9993158578872681,
        0.9993532299995422
      ],
      "min": [
        -0.9991106390953064,
        -0.9982504844665527,
        -0.9989975094795227
      ],
      "type": "VEC3"
    },
    {
      "bufferView": 3,
      "byteOffset": 37952,
      "componentType": 5126,
      "count": 2375,
      "max": [
        0.9959622621536255,
        0.9988040328025818,
        0.9975020885467529,
        1.0
      ],
      "min": [
        -0.9998573660850525,
        -0.9999629259109497,
        -0.9990339279174805,
        -1.0
      ],
      "type": "VEC4"
    },
    {
      "bufferView": 1,
      "byteOffset": 18976,
      "componentType": 5126,
      "count": 2375,
      "max": [
        0.9994999766349792,
        0.9838150143623352
      ],
      "min": [
        0.0005000000237487257,
        0.0005000000237487257
      ],
      "type": "VEC2"
    },
    {
      "bufferView": 0,
      "byteOffset": 35676,
      "componentType": 5125,
      "count": 8919,
      "type": "SCALAR"
    },
    {
      "bufferView": 2,
      "byteOffset": 113928,
      "componentType": 5126,
      "count": 2373,
      "max": [
        -0.03849099949002266,
        0.034176599234342575,
        0.517084002494812
      ],
      "min": [
        -1.0,
        -0.5179700255393982,
        -0.15425199270248413
      ],
      "type": "VEC3"
    },
    {
      "bufferView": 2,
      "byteOffset": 142404,
      "componentType": 5126,
      "count": 2373,
      "max": [
        0.9995022416114807,
        0.9993158578872681,
        0.9962484836578369
      ],
      "min": [
        -0.9995349049568176,
        -0.9982504844665527,
        -0.9995883703231812
      ],
      "type": "VEC3"
    },
    {
      "bufferView": 3,
      "byteOffset": 75952,
      "componentType": 5126,
      "count": 2373,
      "max": [
        0.9939371347427368,
        0.9988039135932922,
        0.9989518523216248,
        1.0
      ],
      "min": [
        -0.9992681741714478,
        -0.9999627470970154,
        -0.9994844794273376,
        -1.0
      ],
      "type": "VEC4"
    },
    {
      "bufferView": 1,
      "byteOffset": 37976,
      "componentType": 5126,
      "count": 2373,
      "max": [
        0.9994999766349792,
        0.9838150143623352
      ],
      "min": [
        0.0005000000237487257,
        0.0005000000237487257
      ],
      "type": "VEC2"
    },
    {
      "bufferView": 0,
      "byteOffset": 71352,
      "componentType": 5125,
      "count": 8919,
      "type": "SCALAR"
    },
    {
      "bufferView": 2,
      "byteOffset": 170880,
      "componentType": 5126,
      "count": 2372,
      "max": [
        -0.0239413995295763,
        -0.039542198181152344,
        0.02646240033209324
      ],
      "min": [
        -0.8547800183296204,
        -0.5916889905929565,
        -0.6053230166435242
      ],
      "type": "VEC3"
    },
    {
      "bufferView": 2,
      "byteOffset": 199344,
      "componentType": 5126,
      "count": 2372,
      "max": [
        0.99997478723526,
        0.9993158578872681,
        0.9969170093536377
      ],
      "min": [
        -0.999966025352478,
        -0.9982504844665527,
        -0.9988622665405273
      ],
      "type": "VEC3"
    },
    {
      "bufferView": 3,
      "byteOffset": 113920,
      "componentType": 5126,
      "count": 2372,
      "max": [
        0.9965341091156006,
        0.9988037943840027,
        0.9996270537376404,
        1.0
      ],
      "min": [
        -0.9968736171722412,
        -0.9999628663063049,
        -0.9999067187309265,
        -1.0
      ],
      "type": "VEC4"
    },
    {
      "bufferView": 1,
      "byteOffset": 56960,
      "componentType": 5126,
      "count": 2372,
      "max": [
        0.9994999766349792,
        0.9838150143623352
      ],
      "min": [
        0.0005000000237487257,
        0.0005000000237487257
      ],
      "type": "VEC2"
    },
    {
      "bufferView": 0,
      "byteOffset": 107028,
      "componentType": 5125,
      "count": 8919,
      "type": "SCALAR"
    },
    {
      "bufferView": 2,
      "byteOffset": 227808,
      "componentType": 5126,
      "count": 2375,
      "max": [
        0.309922993183136,
        0.034176599234342575,
        0.005467629991471767
      ],
      "min": [
        -0.3344790041446686,
        -0.5179700255393982,
        -0.9864240288734436
      ],
      "type": "VEC3"
    },
    {
      "bufferView": 2,
      "byteOffset": 256308,
      "componentType": 5126,
      "count": 2375,
      "max": [
        0.9980208873748779,
        0.9993158578872681,
        0.9997071027755737
      ],
      "min": [
        -0.9980208873748779,
        -0.9982504844665527,
        -0.9971533417701721
      ],
      "type": "VEC3"
    },
    {
      "bufferView": 3,
      "byteOffset": 151872,
      "componentType": 5126,
      "count": 2375,
      "max": [
        0.9989680051803589,
        0.998803973197937,
        0.9998666644096375,
        1.0
      ],
      "min": [
        -0.9991312623023987,
        -0.9999628067016602,
        -0.997738242149353,
        -1.0
      ],
      "type": "VEC4"
    },
    {
      "bufferView": 1,
      "byteOffset": 75936,
      "componentType": 5126,
      "count": 2375,
      "max": [
        0.9994999766349792,
        0.9838150143623352
      ],
      "min": [
        0.0005000000237487257,
        0.0005000000237487257
      ],
      "type": "VEC2"
    },
    {
      "bufferView": 0,
      "byteOffset": 142704,
      "componentType": 5125,
      "count": 8919,
      "type": "SCALAR"
    },
    {
      "bufferView": 2,
      "byteOffset": 284808,
      "componentType": 5126,
      "count": 2372,
      "max": [
        0.7870979905128479,
        -0.039542198181152344,
        0.031574301421642303
      ],
      "min": [
        0.00887233018875122,
        -0.5916889905929565,
        -0.6852139830589294
      ],
      "type": "VEC3"
    },
    {
      "bufferView": 2,
      "byteOffset": 313272,
      "componentType": 5126,
      "count": 2372,
      "max": [
        0.9995478987693787,
        0.9993158578872681,
        0.9964315295219421
      ],
      "min": [
        -0.9997541308403015,
        -0.9982504844665527,
        -0.9982263445854187
      ],
      "type": "VEC3"
    },
    {
      "bufferView": 3,
      "byteOffset": 189872,
      "componentType": 5126,
      "count": 2372,
      "max": [
        0.9999869465827942,
        0.9988040328025818,
        0.9992991089820862,
        1.0
      ],
      "min": [
        -0.9992560744285583,
        -0.9999629259109497,
        -0.9986111521720886,
        -1.0
      ],
      "type": "VEC4"
    },
    {
      "bufferView": 1,
      "byteOffset": 94936,
      "componentType": 5126,
      "count": 2372,
      "max": [
        0.9994999766349792,
        0.9838150143623352
      ],
      "min": [
        0.0005000000237487257,
        0.0005000000237487257
      ],
      "type": "VEC2"
    },
    {
      "bufferView": 0,
      "byteOffset": 178380,
      "componentType": 5125,
      "count": 8919,
      "type": "SCALAR"
    },
    {
      "bufferView": 2,
      "byteOffset": 341736,
      "componentType": 5126,
      "count": 2372,
      "max": [
        1.0,
        -0.039542198181152344,
        0.4731610119342804
      ],
      "min": [
        0.019802700728178024,
        -0.5916889905929565,
        -0.12248100340366364
      ],
      "type": "VEC3"
    },
    {
      "bufferView": 2,
      "byteOffset": 370200,
      "componentType": 5126,
      "count": 2372,
      "max": [
        0.9994958639144897,
        0.9993158578872681,
        0.9977959990501404
      ],
      "min": [
        -0.998860239982605,
        -0.9982504844665527,
        -0.9978906512260437
      ],
      "type": "VEC3"
    },
    {
      "bufferView": 3,
      "byteOffset": 227824,
      "componentType": 5126,
      "count": 2372,
      "max": [
        0.9959403276443481,
        0.9988037943840027,
        0.9985953569412231,
        1.0
      ],
      "min": [
        -0.9998352527618408,
        -0.9999628067016602,
        -0.9994885325431824,
        -1.0
      ],
      "type": "VEC4"
    },
    {
      "bufferView": 1,
      "byteOffset": 113912,
      "componentType": 5126,
      "count": 2372,
      "max": [
        0.9994999766349792,
        0.9838150143623352
      ],
      "min": [
        0.0005000000237487257,
        0.0005000000237487257
      ],
      "type": "VEC2"
    },
    {
      "bufferView": 0,
      "byteOffset": 214056,
      "componentType": 5125,
      "count": 8919,
      "type": "SCALAR"
    },
    {
      "bufferView": 2,
      "byteOffset": 398664,
      "componentType": 5126,
      "count": 655,
      "max": [
        0.08032870292663574,
        0.5916889905929565,
        0.12562499940395355
      ],
      "min": [
        -0.0989115983247757,
        -0.3281230032444,
        -0.050891999155282974
      ],
      "type": "VEC3"
    },
    {
      "bufferView": 2,
      "byteOffset": 406524,
      "componentType": 5126,
      "count": 655,
      "max": [
        1.0,
        1.0,
        1.0
      ],
      "min": [
        -1.0,
        -1.0,
        -1.0
      ],
      "type": "VEC3"
    },
    {
      "bufferView": 3,
      "byteOffset": 265776,
      "componentType": 5126,
      "count": 655,
      "max": [
        1.0,
        2.975619281642139e-05,
        1.0,
        1.0
      ],
      "min": [
        -0.7661771178245544,
        -1.0,
        -0.9848135113716125,
        -1.0
      ],
      "type": "VEC4"
    },
    {
      "bufferView": 1,
      "byteOffset": 132888,
      "componentType": 5126,
      "count": 655,
      "max": [
        0.9594429731369019,
        0.9875879883766174
      ],
      "min": [
        0.060051798820495605,
        0.0005000000237487257
      ],
      "type": "VEC2"
    },
    {
      "bufferView": 0,
      "byteOffset": 249732,
      "componentType": 5125,
      "count": 1344,
      "type": "SCALAR"
    }
  ],
  "asset": {
    "extras": {
      "author": "Ravi Jangid (https://sketchfab.com/ravijangid.rv)",
      "license": "CC-BY-4.0 (http://creativecommons.org/licenses/by/4.0/)",
      "source": "https://sketchfab.com/3d-models/chandelier-479ec583117846d7b8b98bacfa263004",
      "title": "Chandelier"
    },
    "generator": "Sketchfab-15.27.0",
    "version": "2.0"
  },
  "bufferViews": [
    {
      "buffer": 0,
      "byteLength": 255108,
      "name": "floatBufferViews",
      "target": 34963
    },
    {
      "buffer": 0,
      "byteLength": 138128,
      "byteOffset": 255108,
      "byteStride": 8,
      "name": "floatBufferViews",
      "target": 34962
    },
    {
      "buffer": 0,
      "byteLength": 414384,
      "byteOffset": 393236,
      "byteStride": 12,
      "name": "floatBufferViews",
      "target": 34962
    },
    {
      "buffer": 0,
      "byteLength": 276256,
      "byteOffset": 807620,
      "byteStride": 16,
      "name": "floatBufferViews",
      "target": 34962
    }
  ],
  "buffers": [
    {
      "byteLength": 1083876,
      "uri": "scene.bin"
    }
  ],
  "images": [
    {
      "uri": "textures/1001_baseColor.png"
    },
    {
      "uri": "textures/1001_metallicRoughness.png"
    },
    {
      "uri": "textures/1001_emissive.jpeg"
    },
    {
      "uri": "textures/1001_normal.png"
    }
  ],
  "materials": [
    {
      "doubleSided": true,
      "emissiveFactor": [
        0.5,
        0.5,
        0.5
      ],
      "emissiveTexture": {
        "index": 2
      },
      "name": "1001",
      "normalTexture": {
        "index": 3
      },
      "pbrMetallicRoughness": {
        "baseColorTexture": {
          "index": 0
        },
        "metallicRoughnessTexture": {
          "index": 1
        }
      }
    }
  ],
  "meshes": [
    {
      "name": "defaultMaterial",
      "primitives": [
        {
          "attributes": {
            "NORMAL": 1,
            "POSITION": 0,
            "TANGENT": 2,
            "TEXCOORD_0": 3
          },
          "indices": 4,
          "material": 0,
          "mode": 4
        }
      ]
    },
    {
      "name": "defaultMaterial",
      "primitives": [
        {
          "attributes": {
            "NORMAL": 6,
            "POSITION": 5,
            "TANGENT": 7,
            "TEXCOORD_0": 8
          },
          "indices": 9,
          "material": 0,
          "mode": 4
        }
      ]
    },
    {
      "name": "defaultMaterial",
      "primitives": [
        {
          "attributes": {
            "NORMAL": 11,
            "POSITION": 10,
            "TANGENT": 12,
            "TEXCOORD_0": 13
          },
          "indices": 14,
          "material": 0,
          "mode": 4
        }
      ]
    },
    {
      "name": "defaultMaterial",
      "primitives": [
        {
          "attributes": {
            "NORMAL": 16,
            "POSITION": 15,
            "TANGENT": 17,
            "TEXCOORD_0": 18
          },
          "indices": 19,
          "material": 0,
          "mode": 4
        }
      ]
    },
    {
      "name": "defaultMaterial",
      "primitives": [
        {
          "attributes": {
            "NORMAL": 21,
            "POSITION": 20,
            "TANGENT": 22,
            "TEXCOORD_0": 23
          },
          "indices": 24,
          "material": 0,
          "mode": 4
        }
      ]
    },
    {
      "name": "defaultMaterial",
      "primitives": [
        {
          "attributes": {
            "NORMAL": 26,
            "POSITION": 25,
            "TANGENT": 27,
            "TEXCOORD_0": 28
          },
          "indices": 29,
          "material": 0,
          "mode": 4
        }
      ]
    },
    {
      "name": "defaultMaterial",
      "primitives": [
        {
          "attributes": {
            "NORMAL": 31,
            "POSITION": 30,
            "TANGENT": 32,
            "TEXCOORD_0": 33
          },
          "indices": 34,
          "material": 0,
          "mode": 4
        }
      ]
    },
    {
      "name": "defaultMaterial",
      "primitives": [
        {
          "attributes": {
            "NORMAL": 36,
            "POSITION": 35,
            "TANGENT": 37,
            "TEXCOORD_0": 38
          },
          "indices": 39,
          "material": 0,
          "mode": 4
        }
      ]
    }
  ],
  "nodes": [
    {
      "children": [
        1
      ],
      "matrix": [
        1.0,
        0.0,
        0.0,
        0.0,
        0.0,
        2.220446049250313e-16,
        -1.0,
        0.0,
        0.0,
        1.0,
        2.220446049250313e-16,
        0.0,
        0.0,
        0.0,
        0.0,
        1.0
      ],
      "name": "Sketchfab_model"
    },
    {
      "children": [
        2,
        4,
        6,
        8,
        10,
        12,
        14,
        16
      ],
      "matrix": [
        1.0,
        0.0,
        0.0,
        0.0,
        0.0,
        -4.371139006309477e-08,
        0.999999999999999,
        0.0,
        0.0,
        -0.999999999999999,
        -4.371139006309477e-08,
        0.0,
        0.0,
        0.0,
        0.0,
        1.0
      ],
      "name": "Collada visual scene group"
    },
    {
      "children": [
        3
      ],
      "name": "Object007"
    },
    {
      "mesh": 0,
      "name": "defaultMaterial"
    },
    {
      "children": [
        5
      ],
      "name": "Object006"
    },
    {
      "mesh": 1,
      "name": "defaultMaterial"
    },
    {
      "children": [
        7
      ],
      "name": "Object005"
    },
    {
      "mesh": 2,
      "name": "defaultMaterial"
    },
    {
      "children": [
        9
      ],
      "name": "Object004"
    },
    {
      "mesh": 3,
      "name": "defaultMaterial"
    },
    {
      "children": [
        11
      ],
      "name": "Object003"
    },
    {
      "mesh": 4,
      "name": "defaultMaterial"
    },
    {
      "children": [
        13
      ],
      "name": "Object002"
    },
    {
      "mesh": 5,
      "name": "defaultMaterial"
    },
    {
      "children": [
        15
      ],
      "name": "Object001"
    },
    {
      "mesh": 6,
      "name": "defaultMaterial"
    },
    {
      "children": [
        17
      ],
      "name": "Line46254523"
    },
    {
      "mesh": 7,
      "name": "defaultMaterial"
    }
  ],
  "samplers": [
    {
      "magFilter": 9729,
      "minFilter": 9987,
      "wrapS": 10497,
      "wrapT": 10497
    }
  ],
  "scene": 0,
  "scenes": [
    {
      "name": "Sketchfab_Scene",
      "nodes": [
        0
      ]
    }
  ],
  "textures": [
    {
      "sampler": 0,
      "source": 0
    },
    {
      "sampler": 0,
      "source": 1
    },
    {
      "sampler": 0,
      "source": 2
    },
    {
      "sampler": 0,
      "source": 3
    }
  ]
}
